<?xml version="1.0" encoding="utf-8"?>
<!-- Generator: Adobe Illustrator 17.1.0, SVG Export Plug-In . SVG Version: 6.00 Build 0)  -->
<!DOCTYPE svg PUBLIC "-//W3C//DTD SVG 1.1//EN" "http://www.w3.org/Graphics/SVG/1.1/DTD/svg11.dtd">
<svg version="1.1" id="Layer_1" xmlns="http://www.w3.org/2000/svg" xmlns:xlink="http://www.w3.org/1999/xlink" x="0px" y="0px"
	 viewBox="0 0 405 405" enable-background="new 0 0 405 405" xml:space="preserve">
<g>
	<path fill="#FFFFFF" d="M268.6,331.6c-23,7.9-42.7,25.1-53.5,46.9c-3.8,7.5-6.6,15.5-8.2,23.8c-4.2,20.5-1.3,42.4,8.2,61.1
		c6.2,12.2,15,23.1,25.7,31.6c10.1,8.1,21.9,14,34.3,17.3c15.7,4.2,32.5,4.1,48.4,0.5c14.3-3.3,27.9-10.1,38.7-20.1
		c11.4-10.5,19.6-24.4,23.9-39.2c4.7-16.2,5.4-33.6,2.4-50.2c-29.6,0-59.3,0-88.9,0c0,12.3,0,24.6,0,36.9c17.2,0,34.3,0,51.5,0
		c-2,11.8-9,22.6-18.9,29.2c-6.2,4.2-13.4,6.9-20.8,8.2c-7.4,1.3-15.1,1.4-22.6-0.1c-7.5-1.5-14.8-4.7-21-9.1
		c-10.1-7.1-17.7-17.4-21.7-29c-4-11.8-4.1-25,0-36.8c2.8-8.3,7.5-16,13.7-22.3c7.6-7.8,17.5-13.4,28.2-15.7
		c9.1-2,18.8-1.6,27.7,1.1c7.6,2.3,14.6,6.5,20.4,12c5.8-5.8,11.6-11.6,17.4-17.4c3-3.1,6.2-6.1,9.2-9.3
		c-8.8-8.2-19.1-14.7-30.4-18.8C312,324.7,289.1,324.5,268.6,331.6z"/>
	<g>
		<path fill="#EA4535" d="M268.6,331.6c20.4-7.1,43.4-6.9,63.7,0.6c11.3,4.1,21.6,10.7,30.4,18.8c-2.9,3.2-6.1,6.2-9.2,9.3
			c-5.8,5.8-11.6,11.6-17.4,17.4c-5.7-5.5-12.8-9.7-20.4-12c-9-2.7-18.6-3.1-27.7-1.1c-10.7,2.3-20.6,7.9-28.2,15.7
			c-6.2,6.3-10.9,14-13.7,22.3c-10.3-8-20.6-16-31-24C226,356.7,245.6,339.5,268.6,331.6z"/>
	</g>
	<g>
		<path fill="#F9BC15" d="M206.9,402.3c1.7-8.2,4.4-16.3,8.2-23.8c10.3,8,20.7,16,31,24c-4.1,11.8-4,25,0,36.8
			c-10.3,8-20.6,16-31,24C205.6,444.7,202.7,422.8,206.9,402.3z"/>
	</g>
	<g>
		<path fill="#557EBF" d="M299.5,403.2c29.6,0,59.3,0,88.9,0c3,16.6,2.3,33.9-2.4,50.2c-4.3,14.9-12.5,28.7-23.9,39.2
			c-10-7.8-20-15.5-30-23.3c9.9-6.6,16.9-17.4,18.9-29.2c-17.2,0-34.3,0-51.5,0C299.5,427.8,299.5,415.5,299.5,403.2z"/>
	</g>
	<g>
		<path fill="#36A852" d="M215.1,463.4c10.3-8,20.6-16,31-24c3.9,11.6,11.6,22,21.7,29c6.3,4.4,13.5,7.6,21,9.1
			c7.4,1.5,15.1,1.3,22.6,0.1c7.4-1.3,14.6-4,20.8-8.2c10,7.8,20,15.5,30,23.3c-10.8,10-24.4,16.8-38.7,20.1
			c-15.8,3.6-32.6,3.7-48.4-0.5c-12.5-3.3-24.2-9.3-34.3-17.3C230.1,486.4,221.2,475.6,215.1,463.4z"/>
	</g>
</g>
</svg>
