<?xml version="1.0" encoding="utf-8"?>
<!-- Generator: Adobe Illustrator 17.1.0, SVG Export Plug-In . SVG Version: 6.00 Build 0)  -->
<!DOCTYPE svg PUBLIC "-//W3C//DTD SVG 1.1//EN" "http://www.w3.org/Graphics/SVG/1.1/DTD/svg11.dtd">
<svg version="1.1" id="Layer_1" xmlns="http://www.w3.org/2000/svg" xmlns:xlink="http://www.w3.org/1999/xlink" x="0px" y="0px"
	 viewBox="0 0 480 640" enable-background="new 0 0 480 640" xml:space="preserve">
<g>
	<path fill="#FFFFFF" d="M195.4,185.3c-35.5,11.9-65.6,37.9-82.4,70.7c-5.8,11.3-10.1,23.4-12.6,35.8c-6.4,31-1.9,64,12.6,92.1
		c9.5,18.4,23,34.8,39.5,47.6c15.5,12.1,33.6,21.1,52.8,26.1c24.2,6.4,50,6.2,74.4,0.8c22-5,42.9-15.3,59.5-30.4
		c17.6-15.8,30.1-36.7,36.8-59.2c7.2-24.5,8.2-50.6,3.7-75.7c-45.6,0-91.2,0-136.8,0c0,18.5,0,37.1,0,55.6c26.4,0,52.8,0,79.2,0
		c-3.1,17.8-13.8,34-29.1,44c-9.6,6.3-20.6,10.4-32,12.4c-11.5,1.9-23.3,2.2-34.7-0.1c-11.6-2.3-22.7-7-32.4-13.7
		c-15.5-10.6-27.3-26.2-33.3-43.8c-6.2-17.8-6.2-37.7,0-55.5c4.4-12.6,11.6-24.2,21.1-33.6c11.7-11.8,27-20.2,43.4-23.6
		c14.1-2.9,28.9-2.4,42.7,1.7c11.7,3.5,22.5,9.8,31.4,18.1c8.9-8.7,17.8-17.5,26.8-26.2c4.7-4.7,9.6-9.2,14.1-14
		c-13.6-12.3-29.4-22.2-46.8-28.4C262.1,174.9,226.8,174.6,195.4,185.3z"/>
	<g>
		<path fill="#EA4535" d="M195.4,185.3c31.5-10.7,66.7-10.4,98,0.8c17.4,6.2,33.2,16.1,46.8,28.4c-4.5,4.8-9.5,9.3-14.1,14
			c-8.9,8.7-17.8,17.5-26.8,26.2c-8.8-8.3-19.6-14.6-31.4-18.1c-13.8-4.1-28.6-4.6-42.7-1.7c-16.4,3.5-31.7,11.9-43.4,23.6
			c-9.5,9.4-16.8,21-21.1,33.6c-15.9-12.1-31.8-24.2-47.7-36.2C129.7,223.2,159.9,197.2,195.4,185.3z"/>
	</g>
	<g>
		<path fill="#F9BC15" d="M100.4,291.8c2.6-12.4,6.8-24.5,12.6-35.8c15.9,12.1,31.8,24.2,47.7,36.2c-6.3,17.8-6.2,37.7,0,55.5
			c-15.9,12.1-31.7,24.2-47.6,36.2C98.4,355.8,93.9,322.8,100.4,291.8z"/>
	</g>
	<g>
		<path fill="#557EBF" d="M242.9,293.3c45.6,0,91.2,0,136.8,0c4.5,25.1,3.5,51.2-3.7,75.7c-6.6,22.4-19.2,43.3-36.8,59.2
			c-15.4-11.7-30.8-23.4-46.2-35.2c15.3-10,26.1-26.2,29.1-44c-26.4,0-52.8,0-79.2,0C242.9,330.4,242.9,311.8,242.9,293.3z"/>
	</g>
	<g>
		<path fill="#36A852" d="M113,384c15.9-12.1,31.8-24.2,47.6-36.2c6.1,17.5,17.9,33.1,33.3,43.8c9.7,6.7,20.8,11.4,32.4,13.7
			c11.4,2.3,23.3,2,34.7,0.1c11.4-2,22.4-6.1,32-12.4c15.4,11.8,30.8,23.4,46.2,35.2c-16.6,15.1-37.5,25.4-59.5,30.4
			c-24.4,5.4-50.2,5.6-74.4-0.8c-19.2-5-37.3-14-52.8-26.1C136,418.7,122.5,402.4,113,384z"/>
	</g>
</g>
</svg>
