<?xml version="1.0" encoding="utf-8"?>
<!-- Generator: Adobe Illustrator 17.1.0, SVG Export Plug-In . SVG Version: 6.00 Build 0)  -->
<!DOCTYPE svg PUBLIC "-//W3C//DTD SVG 1.1//EN" "http://www.w3.org/Graphics/SVG/1.1/DTD/svg11.dtd">
<svg version="1.1" id="Layer_1" xmlns="http://www.w3.org/2000/svg" xmlns:xlink="http://www.w3.org/1999/xlink" x="0px" y="0px"
	 viewBox="0 0 185.2 189" enable-background="new 0 0 185.2 189" xml:space="preserve">
<g>
	<path fill="#FFFFFF" d="M67.7,17.8c-19.8,6.8-36.6,21.6-46,40.3c-3.3,6.4-5.6,13.3-7.1,20.4c-3.6,17.6-1.1,36.4,7,52.5
		c5.3,10.5,12.9,19.8,22.1,27.1c8.7,6.9,18.8,12,29.5,14.9c13.5,3.6,27.9,3.5,41.5,0.4c12.3-2.8,23.9-8.7,33.2-17.3
		c9.8-9,16.8-20.9,20.5-33.7c4-13.9,4.6-28.8,2.1-43.1c-25.5,0-50.9,0-76.4,0c0,10.6,0,21.1,0,31.7c14.7,0,29.5,0,44.2,0
		c-1.7,10.1-7.7,19.4-16.3,25.1c-5.4,3.6-11.5,5.9-17.9,7.1c-6.4,1.1-13,1.2-19.4-0.1c-6.5-1.3-12.7-4-18.1-7.8
		c-8.6-6.1-15.2-14.9-18.6-24.9c-3.5-10.2-3.5-21.5,0-31.6c2.4-7.2,6.5-13.8,11.8-19.1c6.5-6.7,15.1-11.5,24.2-13.5
		c7.9-1.7,16.1-1.4,23.8,1c6.5,2,12.6,5.6,17.5,10.3c5-5,10-10,14.9-14.9c2.6-2.7,5.4-5.2,7.9-8c-7.6-7-16.4-12.6-26.1-16.2
		C104.9,11.9,85.3,11.7,67.7,17.8z"/>
	<g>
		<path fill="#EA4535" d="M67.7,17.8c17.6-6.1,37.2-5.9,54.7,0.5c9.7,3.6,18.6,9.2,26.1,16.2c-2.5,2.7-5.3,5.3-7.9,8
			c-5,5-9.9,10-14.9,14.9c-4.9-4.7-11-8.3-17.5-10.3c-7.7-2.3-16-2.6-23.8-1c-9.2,2-17.7,6.8-24.2,13.5c-5.3,5.4-9.4,12-11.8,19.1
			C39.5,71.8,30.6,65,21.7,58.1C31.1,39.4,47.9,24.6,67.7,17.8z"/>
	</g>
	<g>
		<path fill="#F9BC15" d="M14.7,78.5c1.4-7.1,3.8-14,7.1-20.4c8.9,6.9,17.7,13.8,26.6,20.6c-3.5,10.1-3.5,21.4,0,31.6
			c-8.9,6.9-17.7,13.8-26.6,20.6C13.6,114.9,11.1,96.1,14.7,78.5z"/>
	</g>
	<g>
		<path fill="#557EBF" d="M94.2,79.3c25.5,0,50.9,0,76.4,0c2.5,14.3,2,29.1-2.1,43.1c-3.7,12.8-10.7,24.7-20.5,33.7
			c-8.6-6.7-17.2-13.3-25.8-20c8.5-5.7,14.5-15,16.3-25.1c-14.7,0-29.5,0-44.2,0C94.2,100.4,94.2,89.9,94.2,79.3z"/>
	</g>
	<g>
		<path fill="#36A852" d="M21.7,131c8.9-6.9,17.7-13.8,26.6-20.6c3.4,10,10,18.9,18.6,24.9c5.4,3.8,11.6,6.5,18.1,7.8
			c6.4,1.3,13,1.2,19.4,0.1c6.3-1.1,12.5-3.5,17.9-7.1c8.6,6.7,17.2,13.3,25.8,20c-9.3,8.6-20.9,14.5-33.2,17.3
			c-13.6,3.1-28,3.2-41.5-0.4c-10.7-2.8-20.8-8-29.5-14.9C34.6,150.8,27,141.4,21.7,131z"/>
	</g>
</g>
</svg>
