<?xml version="1.0" encoding="utf-8"?>
<!-- Generator: Adobe Illustrator 17.1.0, SVG Export Plug-In . SVG Version: 6.00 Build 0)  -->
<!DOCTYPE svg PUBLIC "-//W3C//DTD SVG 1.1//EN" "http://www.w3.org/Graphics/SVG/1.1/DTD/svg11.dtd">
<svg version="1.1" xmlns="http://www.w3.org/2000/svg" xmlns:xlink="http://www.w3.org/1999/xlink" x="0px" y="0px"
	 viewBox="0 0 480 640" enable-background="new 0 0 480 640" xml:space="preserve">
<g id="Layer_1">
</g>
<g id="Key_silhouette_security_tool_interface_symbol_of_password">
</g>
<g id="House_Key">
</g>
<g id="House_Key_1_">
	<path fill="#999999" d="M377.3,413c-0.1-1.8-0.9-3.5-2.2-4.7L262.8,296c4.4-10.4,6.7-21.7,6.7-33.3c0-22.8-8.9-44.2-24.9-60.3
		c-16.1-16.1-37.5-24.9-60.2-24.9c-22.8,0-44.1,8.9-60.2,24.9c-33.2,33.2-33.3,87.3,0,120.5c16.1,16.1,37.5,25,60.2,25
		c11.6,0,22.9-2.4,33.3-6.8l36.9,36.9c1.5,1.5,3.6,2.3,5.7,2.2l20.1-0.7l-0.7,20.1c-0.1,2.1,0.7,4.2,2.2,5.7
		c1.5,1.5,3.6,2.3,5.7,2.2l20.2-0.7l-0.7,20.1c-0.1,2.1,0.8,4.2,2.2,5.7c1.5,1.5,3.3,2.3,5.7,2.3l20.1-0.7l-0.7,20.1
		c-0.1,2.2,0.8,4.4,2.4,5.9c1.5,1.3,3.3,2.1,5.2,2.1c0.3,0,0.6,0,0.8,0l30.9-3.4c4.2-0.5,7.2-4.2,6.8-8.4L377.3,413z M174.1,252.4
		c-9.5,9.5-24.8,9.5-34.3,0c-9.5-9.5-9.5-24.8,0-34.2c9.5-9.5,24.8-9.5,34.3,0C183.6,227.6,183.6,243,174.1,252.4z M351,415.6
		c-1.1,1.1-2.6,1.7-4.1,1.7s-3-0.6-4.1-1.7L247.3,320c2.7-2.9,5.1-5.9,7.3-9.1l96.4,96.4C353.2,409.6,353.2,413.3,351,415.6z"/>
</g>
</svg>
