<?xml version="1.0" encoding="utf-8"?>
<!-- Generator: Adobe Illustrator 17.1.0, SVG Export Plug-In . SVG Version: 6.00 Build 0)  -->
<!DOCTYPE svg PUBLIC "-//W3C//DTD SVG 1.1//EN" "http://www.w3.org/Graphics/SVG/1.1/DTD/svg11.dtd">
<svg version="1.1" id="Layer_1" xmlns="http://www.w3.org/2000/svg" xmlns:xlink="http://www.w3.org/1999/xlink" x="0px" y="0px"
	 viewBox="0 640 480 480" enable-background="new 0 640 480 480" xml:space="preserve">
<path fill="#FFFFFF" d="M402,779.4c-12,5.3-24.8,8.9-38.2,10.4c13.7-8.2,24.3-21.2,29.3-36.7c-12.8,7.6-27,13.2-42.2,16.1
	c-12.1-12.9-29.4-21-48.5-21c-36.7,0-66.5,29.7-66.5,66.5c0,5.2,0.6,10.3,1.8,15.2c-55.2-2.7-104.2-29.3-137-69.5
	c-5.7,9.8-9,21.2-9,33.4c0,23.1,11.7,43.4,29.6,55.3c-10.9-0.4-21.1-3.3-30.1-8.3c0,0.2,0,0.6,0,0.8c0,32.2,22.9,59,53.3,65.2
	c-5.6,1.5-11.5,2.4-17.5,2.4c-4.3,0-8.4-0.5-12.6-1.2c8.4,26.4,33.1,45.6,62.1,46.2c-22.8,17.8-51.4,28.4-82.6,28.4
	c-5.3,0-10.7-0.4-15.9-0.9c29.4,18.8,64.4,29.9,101.9,29.9c122.3,0,189.2-101.3,189.2-189.2c0-2.8-0.1-5.8-0.2-8.7
	C381.8,804.6,393.1,792.8,402,779.4z"/>
</svg>
